<svg width="32" height="33" viewBox="0 0 32 33" fill="none" xmlns="http://www.w3.org/2000/svg">
<path d="M15.4493 8.79455C11.5441 8.79455 8.39407 11.9445 8.39407 15.8498C8.39407 19.7551 11.5441 22.9051 15.4493 22.9051C19.3546 22.9051 22.5046 19.7551 22.5046 15.8498C22.5046 11.9445 19.3546 8.79455 15.4493 8.79455ZM15.4493 20.4367C12.9257 20.4367 10.8625 18.3796 10.8625 15.8498C10.8625 13.32 12.9195 11.263 15.4493 11.263C17.9792 11.263 20.0362 13.32 20.0362 15.8498C20.0362 18.3796 17.973 20.4367 15.4493 20.4367V20.4367ZM24.4388 8.50595C24.4388 9.42086 23.702 10.1516 22.7932 10.1516C21.8783 10.1516 21.1476 9.41472 21.1476 8.50595C21.1476 7.59718 21.8844 6.86034 22.7932 6.86034C23.702 6.86034 24.4388 7.59718 24.4388 8.50595ZM29.1116 10.1761C29.0072 7.97174 28.5037 6.01911 26.8888 4.41034C25.28 2.80157 23.3274 2.29806 21.123 2.18753C18.8511 2.05858 12.0414 2.05858 9.76951 2.18753C7.57127 2.29192 5.61863 2.79543 4.00372 4.4042C2.38881 6.01297 1.89144 7.9656 1.78091 10.17C1.65197 12.4419 1.65197 19.2516 1.78091 21.5235C1.8853 23.7279 2.38881 25.6805 4.00372 27.2893C5.61863 28.8981 7.56513 29.4016 9.76951 29.5121C12.0414 29.641 18.8511 29.641 21.123 29.5121C23.3274 29.4077 25.28 28.9042 26.8888 27.2893C28.4976 25.6805 29.0011 23.7279 29.1116 21.5235C29.2406 19.2516 29.2406 12.4481 29.1116 10.1761V10.1761ZM26.1765 23.9612C25.6976 25.1647 24.7704 26.0919 23.5607 26.577C21.7493 27.2954 17.4511 27.1296 15.4493 27.1296C13.4476 27.1296 9.1432 27.2893 7.33793 26.577C6.13442 26.0981 5.20723 25.1709 4.72214 23.9612C4.00372 22.1498 4.16951 17.8516 4.16951 15.8498C4.16951 13.8481 4.00986 9.54367 4.72214 7.73841C5.20109 6.5349 6.12828 5.60771 7.33793 5.12262C9.14934 4.4042 13.4476 4.56999 15.4493 4.56999C17.4511 4.56999 21.7555 4.41034 23.5607 5.12262C24.7642 5.60157 25.6914 6.52876 26.1765 7.73841C26.8949 9.54981 26.7292 13.8481 26.7292 15.8498C26.7292 17.8516 26.8949 22.156 26.1765 23.9612Z" fill="#F5FFE6"/>
</svg>
