<svg width="829" height="520" viewBox="0 0 829 520" fill="none" xmlns="http://www.w3.org/2000/svg">
<path opacity="0.9" d="M62.4 460.133C66.4667 460.133 70.2 461.067 73.6 462.933C76.9334 464.8 79.6334 467.667 81.7 471.533C83.7667 475.4 84.8 480.2 84.8 485.933L84.8 496.533L110 496.533L110 513.633L39.8 513.633L39.8 485.933C39.8 480.333 40.7667 475.6 42.7 471.733C44.6334 467.867 47.3 464.967 50.7 463.033C54.1 461.1 58 460.133 62.4 460.133ZM71.2 487.233C71.2 483.967 70.4334 481.533 68.9 479.933C67.3667 478.333 65.2 477.533 62.4 477.533C59.6 477.533 57.4334 478.333 55.9 479.933C54.3667 481.533 53.6 483.967 53.6 487.233L53.6 496.533L71.2 496.533L71.2 487.233ZM97.6 407.531L97.6 433.731L110 437.931L110 455.831L39.8 430.431L39.8 410.631L110 385.231L110 403.331L97.6 407.531ZM84.4 411.931L58.7 420.631L84.4 429.231L84.4 411.931ZM110 314.7L110 331.8L66.7 360.4L110 360.4L110 377.5L39.8 377.5L39.8 360.4L83.3 331.8L39.8 331.8L39.8 314.7L110 314.7ZM39.8 276.005C39.8 268.605 41.2667 262.138 44.2 256.605C47.1334 251.072 51.2667 246.805 56.6 243.805C61.8667 240.738 67.9667 239.205 74.9 239.205C81.7667 239.205 87.8667 240.738 93.2 243.805C98.5334 246.805 102.667 251.105 105.6 256.705C108.533 262.238 110 268.672 110 276.005L110 302.305L39.8 302.305L39.8 276.005ZM95.2 277.105C95.2 270.638 93.4334 265.605 89.9 262.005C86.3667 258.405 81.3667 256.605 74.9 256.605C68.4334 256.605 63.4 258.405 59.8 262.005C56.2 265.605 54.4 270.638 54.4 277.105L54.4 285.205L95.2 285.205L95.2 277.105ZM97.6 185.949L97.6 212.149L110 216.349L110 234.249L39.8 208.849L39.8 189.049L110 163.649L110 181.749L97.6 185.949ZM84.4 190.349L58.7 199.049L84.4 207.649L84.4 190.349ZM39.8 89.027L53.5 89.027L53.5 117.627L68.3 117.627L68.3 96.227L81.6 96.227L81.6 117.627L110 117.627L110 134.727L39.8 134.727L39.8 89.027ZM110 37.0395L88.5 51.3395L110 63.9395L110 83.3395L74.3 60.8395L39.8 83.8395L39.8 63.9395L61 49.8395L39.8 37.4395L39.8 18.0395L75.2 40.3395L110 17.1395L110 37.0395Z" fill="white" fill-opacity="0.99"/>
<path opacity="0.7" d="M153.381 460.133C157.448 460.133 161.181 461.067 164.581 462.933C167.914 464.8 170.614 467.667 172.681 471.533C174.748 475.4 175.781 480.2 175.781 485.933L175.781 496.533L200.981 496.533L200.981 513.633L130.781 513.633L130.781 485.933C130.781 480.333 131.748 475.6 133.681 471.733C135.614 467.867 138.281 464.967 141.681 463.033C145.081 461.1 148.981 460.133 153.381 460.133ZM162.181 487.233C162.181 483.967 161.414 481.533 159.881 479.933C158.348 478.333 156.181 477.533 153.381 477.533C150.581 477.533 148.414 478.333 146.881 479.933C145.348 481.533 144.581 483.967 144.581 487.233L144.581 496.533L162.181 496.533L162.181 487.233ZM188.581 407.531L188.581 433.731L200.981 437.931L200.981 455.831L130.781 430.431L130.781 410.631L200.981 385.231L200.981 403.331L188.581 407.531ZM175.381 411.931L149.681 420.631L175.381 429.231L175.381 411.931ZM200.981 314.7L200.981 331.8L157.681 360.4L200.981 360.4L200.981 377.5L130.781 377.5L130.781 360.4L174.281 331.8L130.781 331.8L130.781 314.7L200.981 314.7ZM130.781 276.005C130.781 268.605 132.248 262.138 135.181 256.605C138.114 251.072 142.248 246.805 147.581 243.805C152.848 240.738 158.948 239.205 165.881 239.205C172.748 239.205 178.848 240.738 184.181 243.805C189.514 246.805 193.648 251.105 196.581 256.705C199.514 262.238 200.981 268.672 200.981 276.005L200.981 302.305L130.781 302.305L130.781 276.005ZM186.181 277.105C186.181 270.638 184.414 265.605 180.881 262.005C177.348 258.405 172.348 256.605 165.881 256.605C159.414 256.605 154.381 258.405 150.781 262.005C147.181 265.605 145.381 270.638 145.381 277.105L145.381 285.205L186.181 285.205L186.181 277.105ZM188.581 185.949L188.581 212.149L200.981 216.349L200.981 234.249L130.781 208.849L130.781 189.049L200.981 163.649L200.981 181.749L188.581 185.949ZM175.381 190.349L149.681 199.049L175.381 207.649L175.381 190.349ZM130.781 89.027L144.481 89.027L144.481 117.627L159.281 117.627L159.281 96.227L172.581 96.227L172.581 117.627L200.981 117.627L200.981 134.727L130.781 134.727L130.781 89.027ZM200.981 37.0395L179.481 51.3395L200.981 63.9395L200.981 83.3395L165.281 60.8395L130.781 83.8395L130.781 63.9395L151.981 49.8395L130.781 37.4395L130.781 18.0395L166.181 40.3395L200.981 17.1395L200.981 37.0395Z" fill="white"/>
<path opacity="0.4" d="M244.362 460.133C248.429 460.133 252.162 461.067 255.562 462.933C258.895 464.8 261.595 467.667 263.662 471.533C265.729 475.4 266.762 480.2 266.762 485.933L266.762 496.533L291.962 496.533L291.962 513.633L221.762 513.633L221.762 485.933C221.762 480.333 222.729 475.6 224.662 471.733C226.595 467.867 229.262 464.967 232.662 463.033C236.062 461.1 239.962 460.133 244.362 460.133ZM253.162 487.233C253.162 483.967 252.395 481.533 250.862 479.933C249.329 478.333 247.162 477.533 244.362 477.533C241.562 477.533 239.395 478.333 237.862 479.933C236.329 481.533 235.562 483.967 235.562 487.233L235.562 496.533L253.162 496.533L253.162 487.233ZM279.562 407.531L279.562 433.731L291.962 437.931L291.962 455.831L221.762 430.431L221.762 410.631L291.962 385.231L291.962 403.331L279.562 407.531ZM266.362 411.931L240.662 420.631L266.362 429.231L266.362 411.931ZM291.962 314.7L291.962 331.8L248.662 360.4L291.962 360.4L291.962 377.5L221.762 377.5L221.762 360.4L265.262 331.8L221.762 331.8L221.762 314.7L291.962 314.7ZM221.762 276.005C221.762 268.605 223.229 262.138 226.162 256.605C229.095 251.072 233.229 246.805 238.562 243.805C243.829 240.738 249.929 239.205 256.862 239.205C263.729 239.205 269.829 240.738 275.162 243.805C280.495 246.805 284.629 251.105 287.562 256.705C290.495 262.238 291.962 268.672 291.962 276.005L291.962 302.305L221.762 302.305L221.762 276.005ZM277.162 277.105C277.162 270.638 275.395 265.605 271.862 262.005C268.329 258.405 263.329 256.605 256.862 256.605C250.395 256.605 245.362 258.405 241.762 262.005C238.162 265.605 236.362 270.638 236.362 277.105L236.362 285.205L277.162 285.205L277.162 277.105ZM279.562 185.949L279.562 212.149L291.962 216.349L291.962 234.249L221.762 208.849L221.762 189.049L291.962 163.649L291.962 181.749L279.562 185.949ZM266.362 190.349L240.662 199.049L266.362 207.649L266.362 190.349ZM221.762 89.027L235.462 89.027L235.462 117.627L250.262 117.627L250.262 96.227L263.562 96.227L263.562 117.627L291.962 117.627L291.962 134.727L221.762 134.727L221.762 89.027ZM291.962 37.0395L270.462 51.3395L291.962 63.9395L291.962 83.3395L256.262 60.8395L221.762 83.8395L221.762 63.9395L242.962 49.8395L221.762 37.4395L221.762 18.0395L257.162 40.3395L291.962 17.1395L291.962 37.0395Z" fill="white"/>
<path opacity="0.3" d="M335.343 460.133C339.41 460.133 343.143 461.067 346.543 462.933C349.876 464.8 352.576 467.667 354.643 471.533C356.71 475.4 357.743 480.2 357.743 485.933L357.743 496.533L382.943 496.533L382.943 513.633L312.743 513.633L312.743 485.933C312.743 480.333 313.71 475.6 315.643 471.733C317.576 467.867 320.243 464.967 323.643 463.033C327.043 461.1 330.943 460.133 335.343 460.133ZM344.143 487.233C344.143 483.967 343.376 481.533 341.843 479.933C340.31 478.333 338.143 477.533 335.343 477.533C332.543 477.533 330.376 478.333 328.843 479.933C327.31 481.533 326.543 483.967 326.543 487.233L326.543 496.533L344.143 496.533L344.143 487.233ZM370.543 407.531L370.543 433.731L382.943 437.931L382.943 455.831L312.743 430.431L312.743 410.631L382.943 385.231L382.943 403.331L370.543 407.531ZM357.343 411.931L331.643 420.631L357.343 429.231L357.343 411.931ZM382.943 314.7L382.943 331.8L339.643 360.4L382.943 360.4L382.943 377.5L312.743 377.5L312.743 360.4L356.243 331.8L312.743 331.8L312.743 314.7L382.943 314.7ZM312.743 276.005C312.743 268.605 314.21 262.138 317.143 256.605C320.076 251.072 324.21 246.805 329.543 243.805C334.81 240.738 340.91 239.205 347.843 239.205C354.71 239.205 360.81 240.738 366.143 243.805C371.476 246.805 375.61 251.105 378.543 256.705C381.476 262.238 382.943 268.672 382.943 276.005L382.943 302.305L312.743 302.305L312.743 276.005ZM368.143 277.105C368.143 270.638 366.376 265.605 362.843 262.005C359.31 258.405 354.31 256.605 347.843 256.605C341.376 256.605 336.343 258.405 332.743 262.005C329.143 265.605 327.343 270.638 327.343 277.105L327.343 285.205L368.143 285.205L368.143 277.105ZM370.543 185.949L370.543 212.149L382.943 216.349L382.943 234.249L312.743 208.849L312.743 189.049L382.943 163.649L382.943 181.749L370.543 185.949ZM357.343 190.349L331.643 199.049L357.343 207.649L357.343 190.349ZM312.743 89.027L326.443 89.027L326.443 117.627L341.243 117.627L341.243 96.227L354.543 96.227L354.543 117.627L382.943 117.627L382.943 134.727L312.743 134.727L312.743 89.027ZM382.943 37.0395L361.443 51.3395L382.943 63.9395L382.943 83.3395L347.243 60.8395L312.743 83.8395L312.743 63.9395L333.943 49.8395L312.743 37.4395L312.743 18.0395L348.143 40.3395L382.943 17.1395L382.943 37.0395Z" fill="white"/>
<path opacity="0.25" d="M426.324 460.133C430.391 460.133 434.124 461.067 437.524 462.933C440.858 464.8 443.558 467.667 445.624 471.533C447.691 475.4 448.724 480.2 448.724 485.933L448.724 496.533L473.924 496.533L473.924 513.633L403.724 513.633L403.724 485.933C403.724 480.333 404.691 475.6 406.624 471.733C408.558 467.867 411.224 464.967 414.624 463.033C418.024 461.1 421.924 460.133 426.324 460.133ZM435.124 487.233C435.124 483.967 434.358 481.533 432.824 479.933C431.291 478.333 429.124 477.533 426.324 477.533C423.524 477.533 421.358 478.333 419.824 479.933C418.291 481.533 417.524 483.967 417.524 487.233L417.524 496.533L435.124 496.533L435.124 487.233ZM461.524 407.531L461.524 433.731L473.924 437.931L473.924 455.831L403.724 430.431L403.724 410.631L473.924 385.231L473.924 403.331L461.524 407.531ZM448.324 411.931L422.624 420.631L448.324 429.231L448.324 411.931ZM473.924 314.7L473.924 331.8L430.624 360.4L473.924 360.4L473.924 377.5L403.724 377.5L403.724 360.4L447.224 331.8L403.724 331.8L403.724 314.7L473.924 314.7ZM403.724 276.005C403.724 268.605 405.191 262.138 408.124 256.605C411.058 251.072 415.191 246.805 420.524 243.805C425.791 240.738 431.891 239.205 438.824 239.205C445.691 239.205 451.791 240.738 457.124 243.805C462.458 246.805 466.591 251.105 469.524 256.705C472.458 262.238 473.924 268.672 473.924 276.005L473.924 302.305L403.724 302.305L403.724 276.005ZM459.124 277.105C459.124 270.638 457.358 265.605 453.824 262.005C450.291 258.405 445.291 256.605 438.824 256.605C432.358 256.605 427.324 258.405 423.724 262.005C420.124 265.605 418.324 270.638 418.324 277.105L418.324 285.205L459.124 285.205L459.124 277.105ZM461.524 185.949L461.524 212.149L473.924 216.349L473.924 234.249L403.724 208.849L403.724 189.049L473.924 163.649L473.924 181.749L461.524 185.949ZM448.324 190.349L422.624 199.049L448.324 207.649L448.324 190.349ZM403.724 89.027L417.424 89.027L417.424 117.627L432.224 117.627L432.224 96.227L445.524 96.227L445.524 117.627L473.924 117.627L473.924 134.727L403.724 134.727L403.724 89.027ZM473.924 37.0395L452.424 51.3395L473.924 63.9395L473.924 83.3395L438.224 60.8395L403.724 83.8395L403.724 63.9395L424.924 49.8395L403.724 37.4395L403.724 18.0395L439.124 40.3395L473.924 17.1395L473.924 37.0395Z" fill="white"/>
<path opacity="0.15" d="M517.305 460.133C521.372 460.133 525.105 461.067 528.505 462.933C531.839 464.8 534.539 467.667 536.605 471.533C538.672 475.4 539.705 480.2 539.705 485.933L539.705 496.533L564.905 496.533L564.905 513.633L494.705 513.633L494.705 485.933C494.705 480.333 495.672 475.6 497.605 471.733C499.539 467.867 502.205 464.967 505.605 463.033C509.005 461.1 512.905 460.133 517.305 460.133ZM526.105 487.233C526.105 483.967 525.339 481.533 523.805 479.933C522.272 478.333 520.105 477.533 517.305 477.533C514.505 477.533 512.339 478.333 510.805 479.933C509.272 481.533 508.505 483.967 508.505 487.233L508.505 496.533L526.105 496.533L526.105 487.233ZM552.505 407.531L552.505 433.731L564.905 437.931L564.905 455.831L494.705 430.431L494.705 410.631L564.905 385.231L564.905 403.331L552.505 407.531ZM539.305 411.931L513.605 420.631L539.305 429.231L539.305 411.931ZM564.905 314.7L564.905 331.8L521.605 360.4L564.905 360.4L564.905 377.5L494.705 377.5L494.705 360.4L538.205 331.8L494.705 331.8L494.705 314.7L564.905 314.7ZM494.705 276.005C494.705 268.605 496.172 262.138 499.105 256.605C502.039 251.072 506.172 246.805 511.505 243.805C516.772 240.738 522.872 239.205 529.805 239.205C536.672 239.205 542.772 240.738 548.105 243.805C553.439 246.805 557.572 251.105 560.505 256.705C563.439 262.238 564.905 268.672 564.905 276.005L564.905 302.305L494.705 302.305L494.705 276.005ZM550.105 277.105C550.105 270.638 548.339 265.605 544.805 262.005C541.272 258.405 536.272 256.605 529.805 256.605C523.339 256.605 518.305 258.405 514.705 262.005C511.105 265.605 509.305 270.638 509.305 277.105L509.305 285.205L550.105 285.205L550.105 277.105ZM552.505 185.949L552.505 212.149L564.905 216.349L564.905 234.249L494.705 208.849L494.705 189.049L564.905 163.649L564.905 181.749L552.505 185.949ZM539.305 190.349L513.605 199.049L539.305 207.649L539.305 190.349ZM494.705 89.027L508.405 89.027L508.405 117.627L523.205 117.627L523.205 96.227L536.505 96.227L536.505 117.627L564.905 117.627L564.905 134.727L494.705 134.727L494.705 89.027ZM564.905 37.0395L543.405 51.3395L564.905 63.9395L564.905 83.3395L529.205 60.8395L494.705 83.8395L494.705 63.9395L515.905 49.8395L494.705 37.4395L494.705 18.0395L530.105 40.3395L564.905 17.1395L564.905 37.0395Z" fill="white"/>
<path opacity="0.1" d="M605.185 460.133C609.251 460.133 612.985 461.067 616.385 462.933C619.718 464.8 622.418 467.667 624.485 471.533C626.551 475.4 627.585 480.2 627.585 485.933L627.585 496.533L652.785 496.533L652.785 513.633L582.585 513.633L582.585 485.933C582.585 480.333 583.551 475.6 585.485 471.733C587.418 467.867 590.085 464.967 593.485 463.033C596.885 461.1 600.785 460.133 605.185 460.133ZM613.985 487.233C613.985 483.967 613.218 481.533 611.685 479.933C610.151 478.333 607.985 477.533 605.185 477.533C602.385 477.533 600.218 478.333 598.685 479.933C597.151 481.533 596.385 483.967 596.385 487.233L596.385 496.533L613.985 496.533L613.985 487.233ZM640.385 407.531L640.385 433.731L652.785 437.931L652.785 455.831L582.585 430.431L582.585 410.631L652.785 385.231L652.785 403.331L640.385 407.531ZM627.185 411.931L601.485 420.631L627.185 429.231L627.185 411.931ZM652.785 314.7L652.785 331.8L609.485 360.4L652.785 360.4L652.785 377.5L582.585 377.5L582.585 360.4L626.085 331.8L582.585 331.8L582.585 314.7L652.785 314.7ZM582.585 276.005C582.585 268.605 584.051 262.138 586.985 256.605C589.918 251.072 594.051 246.805 599.385 243.805C604.651 240.738 610.751 239.205 617.685 239.205C624.551 239.205 630.651 240.738 635.985 243.805C641.318 246.805 645.451 251.105 648.385 256.705C651.318 262.238 652.785 268.672 652.785 276.005L652.785 302.305L582.585 302.305L582.585 276.005ZM637.985 277.105C637.985 270.638 636.218 265.605 632.685 262.005C629.151 258.405 624.151 256.605 617.685 256.605C611.218 256.605 606.185 258.405 602.585 262.005C598.985 265.605 597.185 270.638 597.185 277.105L597.185 285.205L637.985 285.205L637.985 277.105ZM640.385 185.949L640.385 212.149L652.785 216.349L652.785 234.249L582.585 208.849L582.585 189.049L652.785 163.649L652.785 181.749L640.385 185.949ZM627.185 190.349L601.485 199.049L627.185 207.649L627.185 190.349ZM582.585 89.027L596.285 89.027L596.285 117.627L611.085 117.627L611.085 96.227L624.385 96.227L624.385 117.627L652.785 117.627L652.785 134.727L582.585 134.727L582.585 89.027ZM652.785 37.0395L631.285 51.3395L652.785 63.9395L652.785 83.3395L617.085 60.8395L582.585 83.8395L582.585 63.9395L603.785 49.8395L582.585 37.4395L582.585 18.0395L617.985 40.3395L652.785 17.1395L652.785 37.0395Z" fill="white"/>
<path opacity="0.05" d="M693.064 460.133C697.131 460.133 700.864 461.067 704.264 462.933C707.597 464.8 710.297 467.667 712.364 471.533C714.431 475.4 715.464 480.2 715.464 485.933L715.464 496.533L740.664 496.533L740.664 513.633L670.464 513.633L670.464 485.933C670.464 480.333 671.431 475.6 673.364 471.733C675.297 467.867 677.964 464.967 681.364 463.033C684.764 461.1 688.664 460.133 693.064 460.133ZM701.864 487.233C701.864 483.967 701.097 481.533 699.564 479.933C698.031 478.333 695.864 477.533 693.064 477.533C690.264 477.533 688.097 478.333 686.564 479.933C685.031 481.533 684.264 483.967 684.264 487.233L684.264 496.533L701.864 496.533L701.864 487.233ZM728.264 407.531L728.264 433.731L740.664 437.931L740.664 455.831L670.464 430.431L670.464 410.631L740.664 385.231L740.664 403.331L728.264 407.531ZM715.064 411.931L689.364 420.631L715.064 429.231L715.064 411.931ZM740.664 314.7L740.664 331.8L697.364 360.4L740.664 360.4L740.664 377.5L670.464 377.5L670.464 360.4L713.964 331.8L670.464 331.8L670.464 314.7L740.664 314.7ZM670.464 276.005C670.464 268.605 671.931 262.138 674.864 256.605C677.797 251.072 681.931 246.805 687.264 243.805C692.531 240.738 698.631 239.205 705.564 239.205C712.431 239.205 718.531 240.738 723.864 243.805C729.197 246.805 733.331 251.105 736.264 256.705C739.197 262.238 740.664 268.672 740.664 276.005L740.664 302.305L670.464 302.305L670.464 276.005ZM725.864 277.105C725.864 270.638 724.097 265.605 720.564 262.005C717.031 258.405 712.031 256.605 705.564 256.605C699.097 256.605 694.064 258.405 690.464 262.005C686.864 265.605 685.064 270.638 685.064 277.105L685.064 285.205L725.864 285.205L725.864 277.105ZM728.264 185.949L728.264 212.149L740.664 216.349L740.664 234.249L670.464 208.849L670.464 189.049L740.664 163.649L740.664 181.749L728.264 185.949ZM715.064 190.349L689.364 199.049L715.064 207.649L715.064 190.349ZM670.464 89.027L684.164 89.027L684.164 117.627L698.964 117.627L698.964 96.227L712.264 96.227L712.264 117.627L740.664 117.627L740.664 134.727L670.464 134.727L670.464 89.027ZM740.664 37.0395L719.164 51.3395L740.664 63.9395L740.664 83.3395L704.964 60.8395L670.464 83.8395L670.464 63.9395L691.664 49.8395L670.464 37.4395L670.464 18.0395L705.864 40.3395L740.664 17.1395L740.664 37.0395Z" fill="white"/>
<path opacity="0.02" d="M780.943 460.133C785.01 460.133 788.743 461.067 792.143 462.933C795.477 464.8 798.177 467.667 800.243 471.533C802.31 475.4 803.343 480.2 803.343 485.933L803.343 496.533L828.543 496.533L828.543 513.633L758.343 513.633L758.343 485.933C758.343 480.333 759.31 475.6 761.243 471.733C763.177 467.867 765.843 464.967 769.243 463.033C772.643 461.1 776.543 460.133 780.943 460.133ZM789.743 487.233C789.743 483.967 788.977 481.533 787.443 479.933C785.91 478.333 783.743 477.533 780.943 477.533C778.143 477.533 775.977 478.333 774.443 479.933C772.91 481.533 772.143 483.967 772.143 487.233L772.143 496.533L789.743 496.533L789.743 487.233ZM816.143 407.531L816.143 433.731L828.543 437.931L828.543 455.831L758.343 430.431L758.343 410.631L828.543 385.231L828.543 403.331L816.143 407.531ZM802.943 411.931L777.243 420.631L802.943 429.231L802.943 411.931ZM828.543 314.7L828.543 331.8L785.243 360.4L828.543 360.4L828.543 377.5L758.343 377.5L758.343 360.4L801.843 331.8L758.343 331.8L758.343 314.7L828.543 314.7ZM758.343 276.005C758.343 268.605 759.81 262.138 762.743 256.605C765.677 251.072 769.81 246.805 775.143 243.805C780.41 240.738 786.51 239.205 793.443 239.205C800.31 239.205 806.41 240.738 811.743 243.805C817.077 246.805 821.21 251.105 824.143 256.705C827.077 262.238 828.543 268.672 828.543 276.005L828.543 302.305L758.343 302.305L758.343 276.005ZM813.743 277.105C813.743 270.638 811.977 265.605 808.443 262.005C804.91 258.405 799.91 256.605 793.443 256.605C786.977 256.605 781.943 258.405 778.343 262.005C774.743 265.605 772.943 270.638 772.943 277.105L772.943 285.205L813.743 285.205L813.743 277.105ZM816.143 185.949L816.143 212.149L828.543 216.349L828.543 234.249L758.343 208.849L758.343 189.049L828.543 163.649L828.543 181.749L816.143 185.949ZM802.943 190.349L777.243 199.049L802.943 207.649L802.943 190.349ZM758.343 89.027L772.043 89.027L772.043 117.627L786.843 117.627L786.843 96.227L800.143 96.227L800.143 117.627L828.543 117.627L828.543 134.727L758.343 134.727L758.343 89.027ZM828.543 37.0395L807.043 51.3395L828.543 63.9395L828.543 83.3395L792.843 60.8395L758.343 83.8395L758.343 63.9395L779.543 49.8395L758.343 37.4395L758.343 18.0395L793.743 40.3395L828.543 17.1395L828.543 37.0395Z" fill="white"/>
</svg>
