<svg width="32" height="26" viewBox="0 0 32 26" fill="none" xmlns="http://www.w3.org/2000/svg">
<path d="M28.3941 6.76413C28.414 7.04339 28.414 7.32271 28.414 7.60198C28.414 16.1199 21.9309 25.9345 10.0815 25.9345C6.43095 25.9345 3.03976 24.8772 0.187134 23.042C0.705809 23.1018 1.20447 23.1218 1.7431 23.1218C4.75525 23.1218 7.52811 22.1044 9.74238 20.3689C6.90971 20.3091 4.53585 18.4539 3.71796 15.9005C4.11696 15.9603 4.5159 16.0002 4.93485 16.0002C5.51334 16.0002 6.09188 15.9204 6.63045 15.7808C3.67811 15.1823 1.46377 12.589 1.46377 9.45716V9.3774C2.32152 9.85616 3.31902 10.1554 4.3762 10.1952C2.6407 9.0382 1.50369 7.06335 1.50369 4.82912C1.50369 3.63224 1.8228 2.53508 2.38139 1.57756C5.55319 5.48742 10.3209 8.04077 15.667 8.32009C15.5672 7.84133 15.5074 7.34267 15.5074 6.84395C15.5074 3.29311 18.3799 0.400635 21.9507 0.400635C23.8059 0.400635 25.4815 1.17862 26.6585 2.43536C28.1147 2.1561 29.5111 1.61747 30.7479 0.879398C30.2691 2.37556 29.2517 3.6323 27.9152 4.43018C29.2119 4.29061 30.4686 3.93146 31.6256 3.4328C30.748 4.70944 29.6508 5.84645 28.3941 6.76413V6.76413Z" fill="#F5FFE6"/>
</svg>
