<svg width="29" height="20" viewBox="0 0 29 20" fill="none" xmlns="http://www.w3.org/2000/svg">
<path d="M27.6714 3.40499C27.35 2.19483 26.4031 1.24174 25.2008 0.9183C23.0215 0.330566 14.2827 0.330566 14.2827 0.330566C14.2827 0.330566 5.54392 0.330566 3.36456 0.9183C2.16222 1.24179 1.21528 2.19483 0.893884 3.40499C0.309937 5.59848 0.309937 10.175 0.309937 10.175C0.309937 10.175 0.309937 14.7515 0.893884 16.945C1.21528 18.1551 2.16222 19.0685 3.36456 19.392C5.54392 19.9797 14.2827 19.9797 14.2827 19.9797C14.2827 19.9797 23.0214 19.9797 25.2008 19.392C26.4031 19.0685 27.35 18.1551 27.6714 16.945C28.2554 14.7515 28.2554 10.175 28.2554 10.175C28.2554 10.175 28.2554 5.59848 27.6714 3.40499V3.40499ZM11.4246 14.3301V6.01986L18.7285 10.1751L11.4246 14.3301V14.3301Z" fill="#F5FFE6"/>
</svg>
